<svg xmlns="http://www.w3.org/2000/svg" viewBox="0 0 512 512">
  <path fill="#00d2ff" d="M99.617 8.057C94.502 7.512 99.617 8.057 99.617 8.057C82.978 9.302 73.5 14.5 64.5 23.5C56.5 31.5 51 41.5 49 51.5C48 56.5 48 461.5 49 466.5C51 476.5 56.5 486.5 64.5 494.5C70.5 500.5 78.5 505.5 88 508"/>
  <path fill="#32CD32" d="M328.5 256L99.617 8.057C108.5 10 116.5 14 124 18.5L388 168.5L328.5 256Z"/>
  <path fill="#FFD700" d="M388 343.5L124 493.5C116.5 498 108.5 502 99.617 503.943L328.5 256L388 343.5Z"/>
  <path fill="#FF3D00" d="M463.5 230.5C474.5 240 481 252.5 481 256C481 259.5 474.5 272 463.5 281.5L388 343.5L328.5 256L388 168.5L463.5 230.5Z"/>
</svg>
